<svg xmlns="http://www.w3.org/2000/svg" width="48" height="16" fill="none" viewBox="0 0 48 16"><mask id="u4u4nuae4a" width="48" height="16" x="0" y="0" fill="#000" maskUnits="userSpaceOnUse"><path fill="#fff" d="M0 0h48v16H0z"></path><path fill-rule="evenodd" d="M8 15c3.85 0 7-3.136 7-7s-3.15-7-7-7C4.136 1 1 4.136 1 8s3.136 7 7 7zM8 3.38c2.31 0 3.878 1.778 3.878 3.696 0 .77-.168 1.442-.56 2.282-2.296 0-2.716 1.526-2.814 2.548l-.07.714h-.868l-.07-.714c-.098-1.022-.518-2.548-2.814-2.548-.392-.84-.56-1.512-.56-2.282C4.122 5.158 5.69 3.38 8 3.38zm9.625 3.64c-.014-2.31 1.622-3.64 3.803-3.64 2.112 0 3.538 1.218 3.538 3.122 0 1.582-.965 2.464-2.6 3.248-.616.294-1.301.56-2 .77h4.67v1.96h-7.41V9.82c1.467-.49 2.278-.798 3.635-1.456 1.034-.504 1.678-.952 1.678-1.764 0-.784-.588-1.4-1.51-1.4-1.217 0-1.804.896-1.776 1.82h-2.028zm17.115.7v.7c0 2.31-1.566 4.2-4.404 4.2-2.727 0-4.6-1.946-4.6-4.62 0-2.674 1.817-4.62 4.67-4.62 2.447 0 3.97 1.414 4.334 3.08h-2.027c-.35-.798-1.217-1.26-2.252-1.26-1.775 0-2.768 1.372-2.768 2.8 0 1.428 1.007 2.8 2.755 2.8 1.09 0 1.999-.532 2.279-1.4H30.07V7.72h4.67zm3.02 4.76h-1.957V3.52h1.958v8.96zm8.684-6.3h-2.028c-.196-.602-.727-1.12-1.915-1.12-1.021 0-1.538.392-1.538.952 0 .686.978.882 2.209 1.092l.054.01c1.619.276 3.274.56 3.274 2.636 0 1.946-1.608 2.87-3.776 2.87-2 0-3.789-1.176-3.985-2.94h2.028c.252.728.993 1.26 2.055 1.26 1.021 0 1.594-.336 1.594-.98 0-.794-1.19-.986-2.381-1.177l-.08-.013c-1.272-.21-3.062-.784-3.062-2.66 0-1.694 1.482-2.73 3.678-2.73 2.167 0 3.663 1.092 3.873 2.8z" clip-rule="evenodd"></path></mask><path fill="#262626" fill-rule="evenodd" d="M8 15c3.85 0 7-3.136 7-7s-3.15-7-7-7C4.136 1 1 4.136 1 8s3.136 7 7 7zM8 3.38c2.31 0 3.878 1.778 3.878 3.696 0 .77-.168 1.442-.56 2.282-2.296 0-2.716 1.526-2.814 2.548l-.07.714h-.868l-.07-.714c-.098-1.022-.518-2.548-2.814-2.548-.392-.84-.56-1.512-.56-2.282C4.122 5.158 5.69 3.38 8 3.38zm9.625 3.64c-.014-2.31 1.622-3.64 3.803-3.64 2.112 0 3.538 1.218 3.538 3.122 0 1.582-.965 2.464-2.6 3.248-.616.294-1.301.56-2 .77h4.67v1.96h-7.41V9.82c1.467-.49 2.278-.798 3.635-1.456 1.034-.504 1.678-.952 1.678-1.764 0-.784-.588-1.4-1.51-1.4-1.217 0-1.804.896-1.776 1.82h-2.028zm17.115.7v.7c0 2.31-1.566 4.2-4.404 4.2-2.727 0-4.6-1.946-4.6-4.62 0-2.674 1.817-4.62 4.67-4.62 2.447 0 3.97 1.414 4.334 3.08h-2.027c-.35-.798-1.217-1.26-2.252-1.26-1.775 0-2.768 1.372-2.768 2.8 0 1.428 1.007 2.8 2.755 2.8 1.09 0 1.999-.532 2.279-1.4H30.07V7.72h4.67zm3.02 4.76h-1.957V3.52h1.958v8.96zm8.684-6.3h-2.028c-.196-.602-.727-1.12-1.915-1.12-1.021 0-1.538.392-1.538.952 0 .686.978.882 2.209 1.092l.054.01c1.619.276 3.274.56 3.274 2.636 0 1.946-1.608 2.87-3.776 2.87-2 0-3.789-1.176-3.985-2.94h2.028c.252.728.993 1.26 2.055 1.26 1.021 0 1.594-.336 1.594-.98 0-.794-1.19-.986-2.381-1.177l-.08-.013c-1.272-.21-3.062-.784-3.062-2.66 0-1.694 1.482-2.73 3.678-2.73 2.167 0 3.663 1.092 3.873 2.8z" clip-rule="evenodd"></path><path fill="#F1EDDA" d="M11.318 9.358v1h.637l.27-.577-.907-.423zm-2.814 2.548l.995.098V12l-.995-.095zm-.07.714v1h.907l.088-.902-.995-.098zm-.868 0l-.995.098.088.902h.907v-1zm-.07-.714l-.995.095v.003l.995-.098zM4.682 9.358l-.906.423.269.577h.637v-1zM17.625 7.02l-1 .006.006.994h.994v-1zm4.74 2.73l.432.902-.432-.902zm-2 .77l-.287-.958.288 1.958v-1zm4.671 0h1v-1h-1v1zm0 1.96v1h1v-1h-1zm-7.41 0h-1v1h1v-1zm0-2.66l-.318-.948-.683.228v.72h1zm3.635-1.456l.436.9h.002l-.438-.9zM19.653 7.02v1h1.03l-.03-1.03-1 .03zm15.087.7h1v-1h-1v1zm0-1.26v1h1.242l-.265-1.213-.977.213zm-2.027 0l-.916.401.262.599h.654v-1zm.014 2.94l.952.307.42-1.307h-1.372v1zm-2.657 0h-1v1h1v-1zm0-1.68v-1h-1v1h1zm5.733 4.76h-1v1h1v-1zm1.958 0v1h1v-1h-1zm-1.958-8.96v-1h-1v1h1zm1.958 0h1v-1h-1v1zm6.655 2.66l-.95.31.224.69h.726v-1zm2.028 0v1h1.13l-.137-1.122-.993.122zm-3.272.924l.169-.986h-.001l-.168.986zm.054.01l-.169.985.169-.986zM38.739 9.68v-1h-1.117l.123 1.11.994-.11zm2.028 0l.945-.327-.233-.673h-.712v1zm1.268-.897l.158-.987-.158.987zm-.08-.013l-.163.987h.004l.16-.987zM14 8c0 3.31-2.7 6-6 6v2c4.401 0 8-3.582 8-8h-2zM8 2c3.3 0 6 2.69 6 6h2c0-4.418-3.599-8-8-8v2zM2 8c0-3.312 2.688-6 6-6V0C3.584 0 0 3.584 0 8h2zm6 6c-3.312 0-6-2.688-6-6H0c0 4.416 3.584 8 8 8v-2zm4.878-6.924c0-2.465-2.01-4.696-4.878-4.696v2c1.753 0 2.878 1.326 2.878 2.696h2zm-.654 2.705c.44-.942.654-1.759.654-2.705h-2c0 .594-.122 1.121-.466 1.86l1.812.845zM9.5 12c.042-.448.147-.85.37-1.13.181-.229.547-.513 1.448-.513v-2c-1.395 0-2.387.479-3.014 1.269-.586.738-.74 1.61-.795 2.184l1.99.19zm-.07.716l.07-.713-1.991-.195-.07.713 1.99.195zm-1.864.903h.868v-2h-.868v2zM6.5 12.004l.07.713 1.99-.195-.07-.713-1.99.195zm-1.82-1.646c.902 0 1.268.284 1.449.513.223.28.328.682.37 1.13l1.991-.19c-.055-.574-.21-1.446-.795-2.184-.627-.79-1.62-1.269-3.014-1.269v2zM3.123 7.076c0 .946.214 1.763.654 2.705l1.812-.846c-.344-.738-.466-1.265-.466-1.859h-2zM8 2.38c-2.867 0-4.878 2.23-4.878 4.696h2C5.122 5.706 6.247 4.38 8 4.38v-2zm13.428 0c-1.29 0-2.5.395-3.4 1.216-.91.832-1.412 2.023-1.403 3.43l2-.012c-.005-.903.304-1.532.753-1.942.461-.422 1.159-.692 2.05-.692v-2zm4.538 4.122c0-1.219-.465-2.282-1.319-3.028-.84-.734-1.975-1.094-3.219-1.094v2c.869 0 1.502.25 1.903.6.387.339.635.837.635 1.522h2zm-3.169 4.15c.864-.414 1.66-.902 2.24-1.573.607-.704.93-1.554.93-2.577h-2c0 .56-.161.941-.445 1.27-.312.362-.817.706-1.589 1.076l.864 1.804zm-2.144.826a15.135 15.135 0 002.144-.826l-.863-1.804a12.98 12.98 0 01-1.856.714l.575 1.916zm4.383-1.958h-4.67v2h4.67v-2zm1 2.96v-1.96h-2v1.96h2zm-8.41 1h7.41v-2h-7.41v2zm-1-3.66v2.66h2V9.82h-2zm4.198-2.356c-1.307.634-2.076.927-3.516 1.408l.634 1.897c1.496-.5 2.35-.823 3.755-1.505l-.873-1.8zm1.114-.864c0 .089-.014.153-.14.274-.169.16-.464.342-.975.591l.876 1.798c.523-.255 1.067-.55 1.478-.941.454-.433.762-.998.762-1.722h-2zm-.51-.4c.234 0 .354.074.409.127a.36.36 0 01.102.273h2c0-.649-.247-1.264-.716-1.715-.47-.451-1.105-.685-1.795-.685v2zm-.776.79a.827.827 0 01.176-.57c.09-.104.258-.22.6-.22v-2c-.873 0-1.608.332-2.109.907-.484.557-.686 1.268-.666 1.943l2-.06zm-3.027 1.03h2.027v-2h-2.027v2zm18.115.4v-.7h-2v.7h2zm-5.404 5.2c1.65 0 3.021-.555 3.98-1.534.953-.972 1.424-2.285 1.424-3.666h-2c0 .929-.312 1.716-.852 2.266-.533.544-1.364.934-2.552.934v2zM24.736 8c0 1.575.555 2.99 1.565 4.015 1.012 1.026 2.425 1.605 4.035 1.605v-2c-1.118 0-2.005-.394-2.611-1.01-.608-.616-.99-1.511-.99-2.61h-2zm5.67-5.62c-1.662 0-3.096.572-4.117 1.604-1.018 1.03-1.554 2.449-1.554 4.016h2c0-1.107.373-1.998.977-2.61.602-.609 1.502-1.01 2.693-1.01v-2zm5.311 3.867c-.472-2.164-2.435-3.867-5.312-3.867v2c2.018 0 3.103 1.125 3.358 2.293l1.954-.426zM32.713 7.46h2.027v-2h-2.027v2zM30.46 6.2c.763 0 1.19.33 1.336.661l1.832-.802C33.075 4.795 31.768 4.2 30.46 4.2v2zM28.693 8c0-.976.64-1.8 1.768-1.8v-2c-2.423 0-3.768 1.92-3.768 3.8h2zm1.755 1.8c-1.101 0-1.755-.824-1.755-1.8h-2c0 1.88 1.36 3.8 3.755 3.8v-2zm1.327-.707c-.106.33-.523.707-1.327.707v2c1.377 0 2.777-.687 3.23-2.093l-1.903-.614zM30.07 10.4h2.657v-2H30.07v2zm-1-2.68V9.4h2V7.72h-2zm5.67-1h-4.67v2h4.67v-2zm1.063 6.76h1.958v-2h-1.958v2zm-1-9.96v8.96h2V3.52h-2zm2.958-1h-1.958v2h1.958v-2zm1 9.96V3.52h-2v8.96h2zm5.655-5.3h2.028v-2h-2.028v2zm-1.915-1.12c.451 0 .673.098.773.165a.468.468 0 01.191.265l1.902-.62c-.156-.48-.46-.96-.98-1.307-.51-.342-1.15-.503-1.886-.503v2zm-.538-.048c0 .019-.006.059-.03.102s-.047.055-.037.049c.035-.023.202-.103.605-.103v-2c-.618 0-1.22.116-1.7.43-.522.34-.838.885-.838 1.522h2zm1.377.106c-.643-.11-1.08-.196-1.36-.309-.132-.053-.144-.081-.116-.051a.4.4 0 01.099.254h-2c0 .977.759 1.446 1.268 1.652.518.21 1.185.326 1.773.426l.336-1.972zm.054.01l-.053-.01-.338 1.972.054.009.337-1.971zM47.5 9.75c0-.654-.131-1.236-.411-1.737a2.982 2.982 0 00-1.11-1.117c-.806-.478-1.828-.639-2.585-.768l-.337 1.97c.862.148 1.478.267 1.903.519.185.11.304.23.383.372.081.145.157.376.157.761h2zm-4.776 3.87c1.206 0 2.378-.254 3.277-.888.945-.665 1.499-1.691 1.499-2.982h-2c0 .655-.25 1.065-.651 1.348-.447.314-1.163.522-2.125.522v2zm-4.979-3.83c.273 2.456 2.68 3.83 4.98 3.83v-2c-1.7 0-2.873-.977-2.992-2.05l-1.988.22zm3.022-1.11h-2.028v2h2.028v-2zm2.055 1.26c-.72 0-1.023-.335-1.11-.587l-1.89.654c.416 1.204 1.594 1.933 3 1.933v-2zm.594.02c0 .008 0-.025.027-.07.025-.046.052-.06.04-.053a.614.614 0 01-.187.062 2.35 2.35 0 01-.474.041v2c.593 0 1.204-.093 1.7-.394.56-.34.894-.905.894-1.586h-2zm-1.54-.19c.63.102 1.11.183 1.438.31.158.06.196.1.184.089a.33.33 0 01-.082-.209h2c0-1.056-.847-1.542-1.386-1.748-.565-.217-1.276-.326-1.837-.416l-.317 1.974zm-.08-.013l.08.013.317-1.974-.079-.013-.318 1.974zM37.893 6.11c0 1.327.664 2.23 1.5 2.787.784.523 1.718.747 2.4.86l.325-1.973c-.59-.098-1.188-.266-1.616-.551-.378-.252-.609-.574-.609-1.123h-2zm4.678-3.73c-1.24 0-2.387.291-3.252.922a3.388 3.388 0 00-1.426 2.808h2c0-.518.21-.904.605-1.192.426-.311 1.118-.538 2.073-.538v-2zm4.866 3.678C47.145 3.687 45.06 2.38 42.57 2.38v2c1.844 0 2.752.877 2.88 1.922l1.986-.244z" mask="url(#u4u4nuae4a)"></path></svg>
